<?xml version="1.0" encoding="utf-8"?>
<!-- Generator: Adobe Illustrator 22.1.0, SVG Export Plug-In . SVG Version: 6.00 Build 0)  -->
<svg version="1.1" id="Слой_1" xmlns="http://www.w3.org/2000/svg" xmlns:xlink="http://www.w3.org/1999/xlink" x="0px" y="0px"
	 viewBox="0 0 240 135" style="enable-background:new 0 0 240 135;" xml:space="preserve">
<style type="text/css">
	.st0{fill:none;}
	.st1{fill:none;stroke:#1D1D1B;stroke-width:0.3;}
	.st2{fill:#FFFFFF;}
	.st3{fill:url(#SVGID_1_);}
</style>
<pattern  y="135" width="72" height="72" patternUnits="userSpaceOnUse" id="Grid_1_pica_Lines" viewBox="72.3 -144.2 72 72" style="overflow:visible;">
	<g>
		<rect x="72.3" y="-144.2" class="st0" width="72" height="72"/>
		<g>
			<rect x="72.3" y="-144.2" class="st0" width="72" height="72"/>
			<g>
				<line class="st1" x1="78.3" y1="-144" x2="78.3" y2="-216.5"/>
				<line class="st1" x1="102.3" y1="-144" x2="102.3" y2="-216.5"/>
				<line class="st1" x1="126.3" y1="-144" x2="126.3" y2="-216.5"/>
				<line class="st1" x1="90.3" y1="-144" x2="90.3" y2="-216.5"/>
				<line class="st1" x1="114.3" y1="-144" x2="114.3" y2="-216.5"/>
				<line class="st1" x1="138.3" y1="-144" x2="138.3" y2="-216.5"/>
			</g>
			<g>
				<line class="st1" x1="144" y1="-138.2" x2="216.5" y2="-138.2"/>
				<line class="st1" x1="144" y1="-114.2" x2="216.5" y2="-114.2"/>
				<line class="st1" x1="144" y1="-90.2" x2="216.5" y2="-90.2"/>
				<line class="st1" x1="144" y1="-126.2" x2="216.5" y2="-126.2"/>
				<line class="st1" x1="144" y1="-102.2" x2="216.5" y2="-102.2"/>
				<line class="st1" x1="144" y1="-78.2" x2="216.5" y2="-78.2"/>
			</g>
			<g>
				<line class="st1" x1="78.3" y1="-72" x2="78.3" y2="-144.5"/>
				<line class="st1" x1="102.3" y1="-72" x2="102.3" y2="-144.5"/>
				<line class="st1" x1="126.3" y1="-72" x2="126.3" y2="-144.5"/>
				<line class="st1" x1="72" y1="-138.2" x2="144.5" y2="-138.2"/>
				<line class="st1" x1="72" y1="-114.2" x2="144.5" y2="-114.2"/>
				<line class="st1" x1="72" y1="-90.2" x2="144.5" y2="-90.2"/>
				<line class="st1" x1="72" y1="-126.2" x2="144.5" y2="-126.2"/>
				<line class="st1" x1="72" y1="-102.2" x2="144.5" y2="-102.2"/>
				<line class="st1" x1="72" y1="-78.2" x2="144.5" y2="-78.2"/>
				<line class="st1" x1="90.3" y1="-72" x2="90.3" y2="-144.5"/>
				<line class="st1" x1="114.3" y1="-72" x2="114.3" y2="-144.5"/>
				<line class="st1" x1="138.3" y1="-72" x2="138.3" y2="-144.5"/>
			</g>
			<g>
				<line class="st1" x1="0" y1="-138.2" x2="72.5" y2="-138.2"/>
				<line class="st1" x1="0" y1="-114.2" x2="72.5" y2="-114.2"/>
				<line class="st1" x1="0" y1="-90.2" x2="72.5" y2="-90.2"/>
				<line class="st1" x1="0" y1="-126.2" x2="72.5" y2="-126.2"/>
				<line class="st1" x1="0" y1="-102.2" x2="72.5" y2="-102.2"/>
				<line class="st1" x1="0" y1="-78.2" x2="72.5" y2="-78.2"/>
			</g>
			<g>
				<line class="st1" x1="78.3" y1="0" x2="78.3" y2="-72.5"/>
				<line class="st1" x1="102.3" y1="0" x2="102.3" y2="-72.5"/>
				<line class="st1" x1="126.3" y1="0" x2="126.3" y2="-72.5"/>
				<line class="st1" x1="90.3" y1="0" x2="90.3" y2="-72.5"/>
				<line class="st1" x1="114.3" y1="0" x2="114.3" y2="-72.5"/>
				<line class="st1" x1="138.3" y1="0" x2="138.3" y2="-72.5"/>
			</g>
		</g>
	</g>
</pattern>
<rect class="st2" width="240" height="135"/>
<pattern  id="SVGID_1_" xlink:href="#Grid_1_pica_Lines" patternTransform="matrix(1 0 0 -1 -72.3 -16815.7012)">
</pattern>
<rect x="-0.5" y="-0.5" class="st3" width="241" height="136"/>
</svg>
