<?xml version="1.0" encoding="utf-8"?>
<!-- Generator: Adobe Illustrator 22.1.0, SVG Export Plug-In . SVG Version: 6.00 Build 0) -->
<svg version="1.1" id="clocks__icon" xmlns="http://www.w3.org/2000/svg" xmlns:xlink="http://www.w3.org/1999/xlink" x="0px" y="0px" viewBox="0 0 520 520" enable-background="new 0 0 520 520" xml:space="preserve">
	<g id="clocks_icon">
		<g>
			<g>
				<path
					d="M441,79C392.7,30.6,328.4,4,260,4S127.3,30.6,79,79C30.6,127.3,4,191.6,4,260s26.6,132.7,75,181
				c48.4,48.4,112.6,75,181,75s132.7-26.6,181-75c48.4-48.4,75-112.6,75-181S489.4,127.3,441,79z M260,495.6
				C130.1,495.6,24.4,389.9,24.4,260S130.1,24.4,260,24.4S495.6,130.1,495.6,260S389.9,495.6,260,495.6z"/>
			</g>
		</g>
		<g>
			<g>
				<path
					d="M260,44.2C141,44.2,44.2,141,44.2,260S141,475.8,260,475.8S475.8,379,475.8,260S379,44.2,260,44.2z M434.1,348.7
				l-29.4-17c-4.9-2.8-11.1-1.1-13.9,3.7c-2.8,4.9-1.1,11.1,3.7,13.9l29.4,17c-14.9,22.9-34.5,42.5-57.5,57.5l-17-29.4
				c-2.8-4.9-9.1-6.5-13.9-3.7c-4.9,2.8-6.5,9.1-3.7,13.9l17,29.4c-23.8,12.2-50.4,19.6-78.5,21.1v-34c0-5.6-4.6-10.2-10.2-10.2
				s-10.2,4.6-10.2,10.2v34c-28.1-1.5-54.7-8.9-78.5-21.1l17-29.4c2.8-4.9,1.1-11.1-3.7-13.9c-4.9-2.8-11.1-1.1-13.9,3.7l-17,29.4
				c-22.9-14.9-42.5-34.5-57.5-57.5l29.4-17c4.9-2.8,6.5-9.1,3.7-13.9c-2.8-4.9-9.1-6.5-13.9-3.7l-29.4,17
				c-12.2-23.8-19.6-50.4-21.1-78.5h34c5.6,0,10.2-4.6,10.2-10.2s-4.6-10.2-10.2-10.2h-34c1.5-28.1,8.9-54.7,21.1-78.5l29.4,17
				c1.6,0.9,3.4,1.4,5.1,1.4c3.5,0,7-1.8,8.8-5.1c2.8-4.9,1.1-11.1-3.7-13.9l-29.4-17c14.9-22.9,34.5-42.5,57.5-57.5l17,29.4
				c1.9,3.3,5.3,5.1,8.8,5.1c1.7,0,3.5-0.4,5.1-1.4c4.9-2.8,6.6-9.1,3.7-13.9l-17-29.4c23.8-12.2,50.4-19.6,78.5-21.1v34
				c0,5.6,4.6,10.2,10.2,10.2c5.6,0,10.2-4.6,10.2-10.2v-34c28.1,1.5,54.7,8.9,78.5,21.1l-17,29.4c-2.8,4.9-1.1,11.1,3.7,13.9
				c1.6,0.9,3.4,1.4,5.1,1.4c3.5,0,7-1.8,8.8-5.1l17-29.4c22.9,14.9,42.5,34.5,57.5,57.5l-29.4,17c-4.9,2.8-6.5,9.1-3.7,13.9
				c1.9,3.3,5.3,5.1,8.8,5.1c1.7,0,3.5-0.4,5.1-1.4l29.4-17c12.2,23.8,19.6,50.4,21.1,78.5h-34c-5.6,0-10.2,4.6-10.2,10.2
				c0,5.6,4.6,10.2,10.2,10.2h34C453.7,298.3,446.2,324.9,434.1,348.7z"/>
			</g>
		</g>
	</g>
	<g id="hours-hand_icon">
		<g>
			<path d="M261.7,228.8L261.7,228.8c-16.5,0-30,13.5-30,30v0c0,16.5,13.5,30,30,30h0c16.5,0,30-13.5,30-30v0
			C291.7,242.3,278.2,228.8,261.7,228.8z"/>
			<path fill="#FFFFFF" d="M261.7,249L261.7,249c-5.4,0-9.8,4.4-9.8,9.8l0,0c0,5.4,4.4,9.8,9.8,9.8h0c5.4,0,9.8-4.4,9.8-9.8v0
			C271.4,253.4,267,249,261.7,249z"/>
		</g>

		<line stroke="#000000" stroke-width="20" stroke-linecap="round" stroke-miterlimit="10" x1="261.7" y1="234.9" x2="261.7" y2="167.9"/>
	</g>
	<g id="seconds-hand_icon">
		<path d="M261.7,228.4L261.7,228.4c-16.5,0-30,13.5-30,30v0c0,16.5,13.5,30,30,30h0c16.5,0,30-13.5,30-30v0
		C291.7,241.9,278.2,228.4,261.7,228.4z"/>
		<path fill="#FFFFFF" d="M261.7,248.6L261.7,248.6c-5.4,0-9.8,4.4-9.8,9.8l0,0c0,5.4,4.4,9.8,9.8,9.8h0c5.4,0,9.8-4.4,9.8-9.8l0,0
		C271.4,253,267,248.6,261.7,248.6z"/>

		<line stroke="#000000" stroke-width="20" stroke-linecap="round" stroke-miterlimit="10" x1="215.9" y1="311.2" x2="245.3" y2="277.2"/>
	</g>
</svg>
