<?xml version="1.0" encoding="utf-8"?>
<!-- Generator: Adobe Illustrator 22.1.0, SVG Export Plug-In . SVG Version: 6.00 Build 0)  -->
<svg version="1.1" id="email__icon" xmlns="http://www.w3.org/2000/svg" xmlns:xlink="http://www.w3.org/1999/xlink" x="0px"
	 y="0px" viewBox="0 0 139 195" enable-background="new 0 0 139 195" xml:space="preserve">
<g id="cap">
	<g>
		<g>
			<polygon fill="#FFFFFF" stroke="#A55A5A" stroke-width="4" stroke-linejoin="round" stroke-miterlimit="10" points="128.8,110.5 
				128.8,111.5 69.6,149.5 69,149.5 9.8,110.5 			"/>
		</g>
		<g>
			
				<line fill="none" stroke="#A55A5A" stroke-width="4" stroke-linejoin="round" stroke-miterlimit="10" x1="9.8" y1="110.5" x2="69" y2="149.5"/>
			
				<line fill="none" stroke="#A55A5A" stroke-width="4" stroke-linejoin="round" stroke-miterlimit="10" x1="128.8" y1="111.5" x2="69.6" y2="149.5"/>
			
				<line fill="none" stroke="#A55A5A" stroke-width="4" stroke-linejoin="round" stroke-miterlimit="10" x1="9.8" y1="110.5" x2="128.8" y2="110.5"/>
		</g>
	</g>
</g>
<g id="letter">
	<g id="icon__letter">
		<g>
			<g>
				<g>
					
						<polygon fill="#FFFFFF" stroke="#A55A5A" stroke-width="4" stroke-linecap="round" stroke-linejoin="round" stroke-miterlimit="10" points="
						109.8,25.5 109.8,109.5 29.8,109.5 28.8,109.5 28.8,4.5 88.8,4.5 88.8,25.5 					"/>
					
						<polygon fill="#FFFFFF" stroke="#A55A5A" stroke-width="4" stroke-linecap="round" stroke-linejoin="round" stroke-miterlimit="10" points="
						109.8,24.5 109.8,25.5 88.8,25.5 88.8,4.5 					"/>
				</g>
				<g>
					
						<line fill="none" stroke="#A55A5A" stroke-width="4" stroke-linecap="round" stroke-linejoin="round" stroke-miterlimit="10" x1="28.8" y1="109.5" x2="28.8" y2="4.5"/>
					
						<polyline fill="#FFFFFF" stroke="#A55A5A" stroke-width="4" stroke-linecap="round" stroke-linejoin="round" stroke-miterlimit="10" points="
						109.8,109.5 109.8,25.5 109.8,24.5 					"/>
					
						<line fill="none" stroke="#A55A5A" stroke-width="4" stroke-linecap="round" stroke-linejoin="round" stroke-miterlimit="10" x1="109.8" y1="109.5" x2="29.8" y2="109.5"/>
					
						<line fill="none" stroke="#A55A5A" stroke-width="4" stroke-linecap="round" stroke-linejoin="round" stroke-miterlimit="10" x1="88.8" y1="4.5" x2="28.8" y2="4.5"/>
					
						<line fill="none" stroke="#A55A5A" stroke-width="4" stroke-linecap="round" stroke-linejoin="round" stroke-miterlimit="10" x1="88.8" y1="4.5" x2="109.8" y2="24.5"/>
					
						<line fill="none" stroke="#A55A5A" stroke-width="4" stroke-linecap="round" stroke-linejoin="round" stroke-miterlimit="10" x1="88.8" y1="4.5" x2="88.8" y2="25.5"/>
					
						<line fill="none" stroke="#A55A5A" stroke-width="4" stroke-linecap="round" stroke-linejoin="round" stroke-miterlimit="10" x1="88.8" y1="25.5" x2="109.8" y2="25.5"/>
					
						<line fill="none" stroke="#A55A5A" stroke-width="4" stroke-linecap="round" stroke-linejoin="round" stroke-miterlimit="10" x1="67.7" y1="62.5" x2="94.8" y2="62.5"/>
					
						<line fill="none" stroke="#A55A5A" stroke-width="4" stroke-linecap="round" stroke-linejoin="round" stroke-miterlimit="10" x1="94.8" y1="74.5" x2="43.8" y2="74.5"/>
					
						<line fill="none" stroke="#A55A5A" stroke-width="4" stroke-linecap="round" stroke-linejoin="round" stroke-miterlimit="10" x1="94.8" y1="86.5" x2="43.8" y2="86.5"/>
					
						<line fill="none" stroke="#A55A5A" stroke-width="4" stroke-linecap="round" stroke-linejoin="round" stroke-miterlimit="10" x1="94.8" y1="98.5" x2="43.8" y2="98.5"/>
				</g>
			</g>
		</g>
	</g>
	<g id="_x3C__x40_-img_x3E_">
		<g>
			<g>
				<path fill="#FFFFFF" stroke="#A55A5A" stroke-width="4" stroke-linecap="round" stroke-miterlimit="10" d="M72.9,47.9
					c-2.7,0-4.8-2-4.8-4.5"/>
				<path fill="#FFFFFF" stroke="#A55A5A" stroke-width="4" stroke-linecap="round" stroke-miterlimit="10" d="M72.9,47.9
					c2.4,0,4.9-2.3,4.9-4.5"/>
			</g>
			
				<line fill="none" stroke="#A55A5A" stroke-width="4" stroke-linecap="round" stroke-miterlimit="10" x1="68.1" y1="33.9" x2="68.1" y2="43.3"/>
			
				<line fill="none" stroke="#A55A5A" stroke-width="4" stroke-linecap="round" stroke-miterlimit="10" x1="77.8" y1="43.3" x2="77.8" y2="34.3"/>
		</g>
		<g id="_x3C_inner_x5F_circle_x3E_">
			<path fill="#FFFFFF" stroke="#A55A5A" stroke-width="4" stroke-linecap="round" stroke-miterlimit="10" d="M49,33.9
				c0,5.2,4.2,9.3,9.3,9.3"/>
			<path fill="#FFFFFF" stroke="#A55A5A" stroke-width="4" stroke-linecap="round" stroke-miterlimit="10" d="M49,33.9
				c0-4.7,4.7-9.3,9.3-9.3"/>
			<path fill="#FFFFFF" stroke="#A55A5A" stroke-width="4" stroke-linecap="round" stroke-miterlimit="10" d="M58.4,43.3
				c4.7,0,9.3-4.7,9.3-9.3"/>
		</g>
		<g id="_x3C_outer_x5F_circle_x3E_">
			<path fill="#FFFFFF" stroke="#A55A5A" stroke-width="4" stroke-linecap="round" stroke-miterlimit="10" d="M38.9,33.9
				c0-10.7,8.7-19.4,19.4-19.4"/>
			<path fill="#FFFFFF" stroke="#A55A5A" stroke-width="4" stroke-linecap="round" stroke-miterlimit="10" d="M38.9,33.9
				c0,9.7,9.8,19.4,19.4,19.4"/>
			<path fill="#FFFFFF" stroke="#A55A5A" stroke-width="4" stroke-linecap="round" stroke-miterlimit="10" d="M58.4,14.5
				c9.7,0,19.4,9.8,19.4,19.4"/>
		</g>
	</g>
</g>
<g id="envelope">
	<g>
		<g id="XMLID_2_">
			<g>
				<polygon fill="#FFFFFF" stroke="#A55A5A" stroke-width="4" stroke-linejoin="round" stroke-miterlimit="10" points="
					129.3,189.7 129.3,191 9.3,191 56.1,151 69,140 69.6,140 82.6,150.8 				"/>
				<polygon fill="#FFFFFF" stroke="#A55A5A" stroke-width="4" stroke-linejoin="round" stroke-miterlimit="10" points="129.3,111 
					129.3,189.7 82.6,150.8 83.3,150 128.8,110.6 				"/>
				<polygon fill="#FFFFFF" stroke="#A55A5A" stroke-width="4" stroke-linejoin="round" stroke-miterlimit="10" points="55.3,150 
					56.1,151 9.3,191 9.3,111 				"/>
			</g>
			<g>
				
					<line fill="none" stroke="#A55A5A" stroke-width="4" stroke-linejoin="round" stroke-miterlimit="10" x1="129.3" y1="191" x2="9.3" y2="191"/>
				
					<line fill="none" stroke="#A55A5A" stroke-width="4" stroke-linejoin="round" stroke-miterlimit="10" x1="128.8" y1="110.6" x2="129.3" y2="111"/>
				
					<line fill="none" stroke="#A55A5A" stroke-width="4" stroke-linejoin="round" stroke-miterlimit="10" x1="82.6" y1="150.8" x2="83.3" y2="150"/>
				
					<line fill="none" stroke="#A55A5A" stroke-width="4" stroke-linejoin="round" stroke-miterlimit="10" x1="55.3" y1="150" x2="56.1" y2="151"/>
				
					<line fill="none" stroke="#A55A5A" stroke-width="4" stroke-linejoin="round" stroke-miterlimit="10" x1="9.3" y1="191" x2="9.3" y2="111"/>
				<polyline fill="none" stroke="#A55A5A" stroke-width="4" stroke-linejoin="round" stroke-miterlimit="10" points="129.3,191 
					129.3,189.7 129.3,111 				"/>
				
					<line fill="none" stroke="#A55A5A" stroke-width="4" stroke-linejoin="round" stroke-miterlimit="10" x1="83.3" y1="150" x2="128.8" y2="110.6"/>
				
					<line fill="none" stroke="#A55A5A" stroke-width="4" stroke-linejoin="round" stroke-miterlimit="10" x1="55.3" y1="150" x2="9.3" y2="111"/>
				<polyline fill="none" stroke="#A55A5A" stroke-width="4" stroke-linejoin="round" stroke-miterlimit="10" points="69,140 
					56.1,151 9.3,191 				"/>
				<polyline fill="none" stroke="#A55A5A" stroke-width="4" stroke-linejoin="round" stroke-miterlimit="10" points="69.6,140 
					82.6,150.8 129.3,189.7 				"/>
			</g>
		</g>
	</g>
</g>
</svg>
