<?xml version="1.0" encoding="utf-8"?>
<!-- Generator: Adobe Illustrator 22.1.0, SVG Export Plug-In . SVG Version: 6.00 Build 0)  -->
<svg version="1.1" id="mobile__icon" xmlns="http://www.w3.org/2000/svg" xmlns:xlink="http://www.w3.org/1999/xlink" x="0px"
	 y="0px" viewBox="0 0 75 70" style="enable-background:new 0 0 75 70;" xml:space="preserve">
<g id="further__wave">
	<path d="M67.3,24c-0.4-0.4-1-0.4-1.4,0s-0.4,1,0,1.4c3.7,3.7,3.7,9.8,0,13.6c-0.4,0.4-0.4,1,0,1.4c0.2,0.2,0.5,0.3,0.7,0.3
		s0.5-0.1,0.7-0.3C71.8,35.8,71.8,28.5,67.3,24z"/>
	<path d="M9.1,25.4c0.4-0.4,0.4-1,0-1.4s-1-0.4-1.4,0c-4.5,4.5-4.5,11.9,0,16.4c0.2,0.2,0.5,0.3,0.7,0.3s0.5-0.1,0.7-0.3
		c0.4-0.4,0.4-1,0-1.4C5.4,35.2,5.4,29.1,9.1,25.4z"/>
</g>
<g id="closest__wave">
	<path d="M63.1,26.2c-0.4-0.4-1-0.4-1.4,0s-0.4,1,0,1.4c1.2,1.2,1.9,2.9,1.9,4.6s-0.7,3.4-1.9,4.6c-0.4,0.4-0.4,1,0,1.4
		c0.2,0.2,0.5,0.3,0.7,0.3s0.5-0.1,0.7-0.3c1.6-1.6,2.5-3.8,2.5-6.1C65.6,29.8,64.7,27.9,63.1,26.2z"/>
	<path d="M13.3,26c-0.4-0.4-1-0.4-1.4,0c-1.6,1.6-2.5,3.7-2.5,6s0.9,4.4,2.5,6.1c0.2,0.2,0.4,0.3,0.7,0.3s0.5-0.1,0.7-0.3
		c0.4-0.4,0.4-1,0-1.4c-1.2-1.2-1.9-2.9-1.9-4.6c0-1.7,0.7-3.5,1.9-4.7C13.7,27,13.7,26.4,13.3,26z"/>
</g>
<g id="phone">
	<path d="M50.1,5.2H24.9c-2.4,0-4.4,2-4.4,4.4v51.2c0,2.4,2,4.4,4.4,4.4h25.2c2.4,0,4.4-2,4.4-4.4V9.6C54.5,7.2,52.5,5.2,50.1,5.2z
		 M22.5,13.2h30v38h-30V13.2z M24.9,7.2h25.2c1.3,0,2.4,1.1,2.4,2.4v1.6h-30V9.6C22.5,8.3,23.6,7.2,24.9,7.2z M50.1,63.2H24.9
		c-1.3,0-2.4-1.1-2.4-2.4v-7.6h30v7.6C52.5,62.1,51.4,63.2,50.1,63.2z"/>
	<path d="M37.5,54.2c-2.2,0-4,1.8-4,4s1.8,4,4,4s4-1.8,4-4S39.7,54.2,37.5,54.2z M37.5,60.2c-1.1,0-2-0.9-2-2s0.9-2,2-2s2,0.9,2,2
		S38.6,60.2,37.5,60.2z"/>
	<path d="M33.5,10.2h4c0.6,0,1-0.4,1-1c0-0.6-0.4-1-1-1h-4c-0.6,0-1,0.4-1,1C32.5,9.8,32.9,10.2,33.5,10.2z"/>
	<path d="M40.5,10.2h1c0.6,0,1-0.4,1-1c0-0.6-0.4-1-1-1h-1c-0.6,0-1,0.4-1,1C39.5,9.8,39.9,10.2,40.5,10.2z"/>
	<g id="screen">
		<path d="M29,37L29,37l0.9,0.7c0,0,0.1,0,0.1,0.1c0.2,0.1,0.4,0.3,0.6,0.4c0.1,0.1,0.2,0.2,0.4,0.2c0.2,0.1,0.4,0.2,0.6,0.3
			c0.2,0.1,0.3,0.2,0.5,0.2c0.2,0.1,0.3,0.2,0.5,0.2c0.3,0.1,0.7,0.3,1,0.4c0.1,0,0.2,0.1,0.4,0.1c0.3,0.1,0.5,0.1,0.8,0.2
			c0.1,0,0.3,0.1,0.4,0.1c0.3,0.1,0.5,0.1,0.8,0.1c0.1,0,0.2,0,0.4,0c0.4,0,0.8,0.1,1.2,0.1s0.8,0,1.2-0.1c0.1,0,0.2,0,0.4,0
			c0.3,0,0.5-0.1,0.8-0.1c0.1,0,0.3-0.1,0.4-0.1c0.3-0.1,0.5-0.1,0.8-0.2c0.1,0,0.2-0.1,0.4-0.1c0.3-0.1,0.7-0.2,1-0.4
			c0.2-0.1,0.3-0.1,0.5-0.2c0.2-0.1,0.4-0.2,0.5-0.3c0.2-0.1,0.4-0.2,0.6-0.3c0.1-0.1,0.3-0.2,0.4-0.2c0.2-0.1,0.4-0.2,0.6-0.4
			c0,0,0.1,0,0.1-0.1l1-0.7l0,0c2.7-2.4,4.4-5.9,4.4-9.8c0-7.2-5.8-13-13-13s-13,5.8-13,13C24.5,31.1,26.2,34.6,29,37z M34.8,37.9
			c-0.4-0.1-0.8-0.2-1.2-0.4c0,0-0.1,0-0.1,0c-0.4-0.2-0.8-0.3-1.2-0.5l2.4-1.3c0.7-0.4,1.2-1.2,1.2-2v-1.7l-0.2-0.3
			c0,0-0.8-1-1.1-2.3l-0.1-0.5l-0.3-0.2l0-1.5l0.3-0.3v-2.5l0-0.1c0,0-0.1-0.7,0.4-1.3c0.5-0.5,1.4-0.8,2.6-0.8
			c1.2,0,2.1,0.3,2.6,0.8c0.5,0.6,0.4,1.3,0.4,1.3l0,2.2l0,0.5l0.3,0.3v1.5c0,0,0,0.1-0.1,0.1l-0.5,0.2l-0.2,0.5
			c-0.2,0.7-0.5,1.3-0.9,1.9c-0.1,0.1-0.2,0.2-0.3,0.3l-0.3,0.3v1.7c0,0.9,0.5,1.7,1.3,2.1l2.6,1.3c0,0,0,0,0,0
			c-0.4,0.2-0.7,0.3-1.1,0.5c-0.1,0-0.1,0-0.2,0.1c-0.4,0.1-0.8,0.3-1.1,0.3c0,0,0,0,0,0C38.4,38.3,36.6,38.3,34.8,37.9
			C34.8,37.9,34.8,37.9,34.8,37.9z M37.5,16.2c6.1,0,11,4.9,11,11c0,3.4-1.6,6.5-4,8.5c0,0-0.1-0.1-0.1-0.1l-3.5-1.7
			c-0.1-0.1-0.2-0.2-0.2-0.3v-1c0-0.1,0.1-0.1,0.1-0.2c0.4-0.6,0.8-1.3,1.1-2c0.6-0.4,1-1,1-1.8v-1.5c0-0.4-0.1-0.8-0.4-1.2v-1.7
			c0-0.4,0.1-1.7-0.9-2.8c-0.9-1-2.2-1.5-4.1-1.5s-3.2,0.5-4.1,1.5c-1,1.1-0.9,2.5-0.9,2.8V26c-0.2,0.3-0.4,0.8-0.4,1.2v1.5
			c0,0.6,0.2,1.1,0.6,1.5c0.3,1.1,0.9,2,1.2,2.5v1c0,0.1-0.1,0.2-0.2,0.3l-3.2,1.8c0,0-0.1,0-0.1,0.1c-2.4-2-4-5.1-4-8.5
			C26.5,21.1,31.4,16.2,37.5,16.2z"/>
		<path d="M31.5,42.2h-8v8h8h20v-8H31.5z M25.5,48.2v-4h4v4H25.5z M49.5,48.2h-18v-4h18V48.2z"/>
	</g>
</g>
</svg>
