<?xml version="1.0" encoding="utf-8"?>
<!-- Generator: Adobe Illustrator 22.1.0, SVG Export Plug-In . SVG Version: 6.00 Build 0)  -->
<svg version="1.1" xmlns="http://www.w3.org/2000/svg" xmlns:xlink="http://www.w3.org/1999/xlink" x="0px"
	 y="0px" viewBox="0 0 480 270" style="enable-background:new 0 0 480 270;" xml:space="preserve">
<style type="text/css">
	.st0{fill:none;}
	.st1{fill:none;stroke:#1D1D1B;stroke-width:0.3;}
	.st2{fill:#FFFFFF;}
	.st3{fill:url(#_x3C_background_grid_x3E__1_);}
	.st4{fill:#333333;}
	.st5{font-family:'MicrosoftSansSerif';}
	.st6{font-size:68px;}
</style>
<pattern  y="270" width="72" height="72" patternUnits="userSpaceOnUse" id="Mezzotint_Irregular" viewBox="51.7 -85.5 72 72" style="overflow:visible;">
	<g>
		<rect x="51.7" y="-85.5" class="st0" width="72" height="72"/>
		<g>
			<path class="st1" d="M119.9-10c2.3-0.5,7,0,6,1.8s4,7,4.5,5.5s-2-4.5,0.8-4.8s5.8,3,7.5,3.3s5.5-1.5,3.3-3s-2.8-4.5-5.5-4.3
				s-7-0.3-6-3"/>
			<path class="st1" d="M120.9-12.5c1.8,0.5,5.5,0.3,6,1.8s2.7,2.8,2.7,1.5s-1.7-2.8-1.7-2.8s-4-3.5-2-4"/>
			<path class="st1" d="M122.7-5.2c1.5,1.5,3.5,2.7,5.5,3.8c2,1,5,2,5.3,0.8c0.3-1.3-2.8-3.3-1-3.3s3.3,2,6.5,1.8s9.3-4,7.3-4.8
				s-3.8-3.5-5.5-4.5s-2.8-1-4-1s-4-1.3-2-2"/>
		</g>
		<g>
			<path class="st1" d="M47.9-10c2.3-0.5,7,0,6,1.8s4,7,4.5,5.5s-2-4.5,0.8-4.8s5.8,3,7.5,3.3s5.5-1.5,3.3-3s-2.8-4.5-5.5-4.3
				s-7-0.3-6-3"/>
			<path class="st1" d="M75.4-14.5c1.3,0.5,4.3,3,3.3,4.8s-0.5,3.3,1,3.5s6.3-2,5.8-3.3s-1.8-3.3,0-4.5"/>
			<path class="st1" d="M97.4-16.7c1.8,1,1.8,2,0.5,3.3s-6.5,1.3-5.8,2.5s5,4,7.8,4s3-3.5,4.8-4"/>
			<path class="st1" d="M105.7-12.2c0.8-0.5,0.8-1,0.5-3"/>
			<path class="st1" d="M107.9-19.2c0,1.5-0.4,5.6-0.4,6.9c0,1.4,0.5,1.9,0.5,1.9"/>
			<path class="st1" d="M48.9-12.5c1.8,0.5,5.5,0.3,6,1.8s2.8,2.8,2.8,1.5S55.9-12,55.9-12s-4-3.5-2-4"/>
			<path class="st1" d="M77.7-15.2c1.8,0.5,3.8,1,3.5,2.8s0.3,4,0.8,2.8s0-4,1.5-5"/>
			<path class="st1" d="M100.4-20c1.3,2.3,1.5,6.3-0.3,7.5s-3,3-1.5,2.8s4-0.8,4.8-3s2.3-8.8,0.8-9.5"/>
			<path class="st1" d="M109.7-20c-1,1.5-1,4.5,0.3,5.8s2.5,0.8,2.8,2.3s1.5,3.3,2.5,3.3s2.5-2,3.3-2.8c1-1,2.5-1,2.5-1
				c1.8,0.5,5.5,0.3,6,1.8"/>
			<path class="st1" d="M50.7-5.2c1.5,1.5,3.5,2.7,5.5,3.8c2,1,5,2,5.3,0.8C61.7-2,58.7-4,60.4-4s3.3,2,6.5,1.8s9.3-4,7.3-4.8
				s-3.8-3.5-5.5-4.5s-2.8-1-4-1s-4-1.3-2-2"/>
			<path class="st1" d="M73.9-14c1,2,2.3,3.3,2.5,5s-0.5,4.8,2,4.8c0.6,0,1.3,0,2-0.2"/>
			<path class="st1" d="M82.5-4.9c1.4-0.5,2.7-1.2,3.7-2.3c2-2.3,0.3-2.8,0.5-4s6-4,7-3.3s-1.3,0-2.3,1.8s-4.3,6.3,1,6.5
				S98.7-5,98.9-4s5,0.8,5-0.5s1.5-6,2-4.8s2,3.5,5,5"/>
			<path class="st1" d="M112.9-14.7c1.3,1.3,1.5,3.8,2.8,3s2.8-2.3,3.5-2.8"/>
		</g>
		<g>
			<path class="st1" d="M37.7-20c-1,1.5-1,4.5,0.3,5.8s2.5,0.8,2.8,2.3s1.5,3.3,2.5,3.3s2.5-2,3.3-2.8c1-1,2.5-1,2.5-1
				c1.8,0.5,5.5,0.3,6,1.8"/>
		</g>
		<g>
			<path class="st1" d="M118.4-16.7c3.9-2.4,6-7,10.5-8.5c-0.2,1.1-0.1,2.3,0.6,2.8c1.2,0.9,2.4,0.6,3.9,0.2c1-3.2,3.1-7.3,7-6.4
				c1.4,0.3,1.3,2,2.1,2.8c0.9,0.8,2.2,1.7,3.3,1c1.2-0.8,2.4-1.2,3.6-1.8c0.7-0.3,0.2-1.3,1-1.6c1.9-0.6,2.2,1.4,3.5,2
				c-0.1,1.9,0,3.7,0.5,5.5c0.7,2.3,3.4,1.6,5,0.5c-0.3-0.3,0.6-1.8,0.5-3.4c0.5-3.7-1.7-6.9,2.1-8.4c3.7-1.4,7.9-0.4,11.9-1
				c1.2-0.2,2.4-0.4,3.4-1c1.4-0.8,2.6-1.9,4.1-2.3c0.2,0.8,1.4,0.2,1.5,1c0.2,2.2,1.7,3.7,2.8,5.4c0.2,0.3,0.5,1.1,1.2,1.4
				c0.9,0.4,0.7,2.1,1.1,3.3"/>
			<path class="st1" d="M121.1-23.1c1.5-0.7,3.1-1.2,4.5-2.3c0.1-0.9,0.8-1.4,1-2.2c0-0.2,0.4-0.3,0.4-0.3c0.7-1.6,2.3-2.4,3.8-1.7
				c0.4,0.2,0.2,0.9,0.8,0.7c0,0.3,0.1,0.6,0,0.7c-1.3,0.9-1.3,2.4-1.1,3.5c0.2,0.8,1.1,1.6,2.1,0.8c-0.2-2.8,1.1-5.3,3.3-6.9
				c1.2-0.9,2.7-0.7,4.2-0.6c-0.1,0.6,0.4,0.1,0.5,0.3"/>
			<path class="st1" d="M121.4-26.7c1.8-0.3,3.8-2.5,5.3-4c1.5-1.5,3-2.5,4.5-2.2s1,3.2,3.3,0.3s3.8-2,5.3-1.8s5,2,6.3,0.5
				s-2-6,0.3-6.3s3.3,3.3,5.3,4.5s3,2.8,4.3,0.8s3.3-3.8,5.5-3s3,0.8,5,0.8"/>
			<path class="st1" d="M140.9-43.6c-1,0.1-1.9,0.1-2.8,0.1c-3.5,0-4,2.5-1.5,3s4.5,2.5,6.5,4s-1.5,1-3.5,0s-3,0-5.5,2s-1.5-0.5-3-1
				s-3,0.5-4.5,2c-1.5,1.5-3.5,0.5-7.5-0.5"/>
			<path class="st1" d="M120.4-37.2c1.5,0.8,3.3,2.3,5.3,1.3s3.2-2.5,4.5-2s2.5,2.3,4,1.3s3.3-0.8,1.5-2.5s-5.3-3-4-4
				s3.8-3.3,6.5-3.3s15-2.3,14.5,0.3s-1.8,8.3,0,7.3s3.3-2.8,4.8-2.8s2.8-0.3,3.3-2.8s3-3.8,4-2.8s2.5,2.3,2.3,0.5s0.5-4.5,4-4.3
				c0.5,0,1.1,0.1,1.7,0.1"/>
			<path class="st1" d="M120.9-16.2c1-1.3,2.8-3,4.5-4.8s2.7-1.3,3,0.3s0.8,2.5,2.3,2.3s5.5-3,6-5.3s1.8-3.8,3-2.8s2,4,4.3,4
				s7.5-4.8,7.8-3s-0.5,4,0.3,6.5s2.5,2.5,5,1.5s4.5-2,4.8-3.5"/>
			<path class="st1" d="M119.9-82c2.3-0.5,7,0,6,1.8s4,7,4.5,5.5s-2-4.5,0.8-4.8s5.8,3,7.5,3.3s5.5-1.5,3.3-3s-2.8-4.5-5.5-4.3
				s-7-0.3-6-3"/>
			<path class="st1" d="M122.2-40.7c1.8,1,2,2,4,1.3c2-0.8,2.5-1,2.5-1c2,1,3.5,1.5,3.3,0.5c-0.9-3.4-5.8-3-5-4.3
				c1.2-2,5.2-2.3,6.7-4.3s-0.5-3.8,1.8-4.8s5.5,1,6.3,2.3s4.5,2.3,7.5,1.5s7.3-2,6.8,0.5s-1.3,5.8,0.3,4.5s5.3-8.5,7.5-8.3
				s3.3,0,6.3-0.3s9.5,0.5,9.3-2s-4.8-8.3-1-8.3c1.7,0,3.6,0.6,5.2,1.5"/>
			<path class="st1" d="M120.9-84.5c1.8,0.5,5.5,0.3,6,1.8s2.7,2.8,2.7,1.5s-1.7-2.8-1.7-2.8s-4-3.5-2-4"/>
			<path class="st1" d="M121.2-49.5c1.3,0.5,3.3,2.3,4,1.3s-8-3-0.5-4.8c7.5-1.8,6.2-1,7.2-3.5s-6.5-3.3-4.5-4.5
				c2-1.3,9.3-3,11.7-1.8c3,1.5,1.5,3.8,1.8,4.5s-1,4.8,2.5,6s5,2.5,8,0.8s7-3.3,7-2s-0.3,2,2.5,0.3s7.3-3.3,9.8-3s5-0.5,4-2.3
				s-3.8-2.8-5-4.8s0.8-3.3,3.3-3.5s12,0.8,13.8,2.3s2.3,5.5,2.3,8s-1,3.3,1.8,5.3"/>
			<path class="st1" d="M121.4-55.5c2.3,0.5,4.3,0,5.3-0.5s-2.5-3-4.8-3.8"/>
			<path class="st1" d="M121.9-64.7c3.8-0.5,7.2-1.5,9.7-1s7.8-0.5,9.8,3"/>
			<path class="st1" d="M122.2-68.7c3.5,0.5,10.7,2,12.5,2c0.6,0,1.8,0,3.2,0.1"/>
			<path class="st1" d="M122.7-77.2c1.5,1.5,3.5,2.8,5.5,3.8c2,1,5,2,5.3,0.8s-2.8-3.3-1-3.3s3.3,2,6.5,1.8s9.3-4,7.3-4.8
				s-3.8-3.5-5.5-4.5s-2.8-1-4-1s-4-1.3-2-2"/>
			<path class="st1" d="M122.2-71.2c1.8,0.5,10.2,2.8,14.2,2.5s10.8-0.5,11.8,0.3s0.3,2,0.5,3.3s1,2.3,2.3,1s3.8-2,5-1.5
				s3.5,1.3,3.3,0s-2.8-3.3-1.5-5.5s7-6.5,6.5-4.3s-1.3,5.3,0.5,4.5s5-2,8-1.5"/>
			<path class="st1" d="M122.4-74c3,1.5,9.5,4,16,3.8s6.3-1.8,4.8-1.8s0.3-2.5,2.3-2.5s4.5,1.5,4.8,3.3s1,3,2.3,2.8s1-1,2.8-4
				s2.5-3,4-4.8s1.5,0,2.3,0.3s6.3-0.8,6.3,0.5s-3.8,3-2,3s9.8-1.5,11.5-0.8"/>
		</g>
		<g>
			<path class="st1" d="M46.4-16.7c3.9-2.4,6-7,10.5-8.5c-0.2,1.1-0.1,2.3,0.6,2.8c1.2,0.9,2.4,0.6,3.9,0.2c1-3.2,3.1-7.3,7-6.4
				c1.4,0.3,1.3,2,2.1,2.8c0.9,0.8,2.2,1.7,3.3,1c1.2-0.8,2.4-1.2,3.6-1.8c0.7-0.3,0.2-1.3,1-1.6c1.9-0.6,2.2,1.4,3.5,2
				c-0.1,1.9,0,3.7,0.5,5.5c0.7,2.3,3.4,1.6,5,0.5c-0.3-0.3,0.6-1.8,0.5-3.4c0.5-3.7-1.7-6.9,2.1-8.4c3.7-1.4,7.9-0.4,11.9-1
				c1.2-0.2,2.4-0.4,3.4-1c1.4-0.8,2.6-1.9,4.1-2.3c0.2,0.8,1.4,0.2,1.5,1c0.2,2.2,1.7,3.7,2.8,5.4c0.2,0.3,0.5,1.1,1.2,1.4
				c0.9,0.4,0.7,2.1,1.1,3.3"/>
			<path class="st1" d="M128.9-25.2c-4.5,1.5-6.6,6.1-10.5,8.5c-1.5,1-2.6,1.1-3.9,0.8c-1.2-0.3-0.4-2.1-0.5-3.3
				c-0.2-1.5,1.6-0.9,2.2-1.9c0.6-1,0.8-1.5,0.6-2.7"/>
			<path class="st1" d="M49.1-23.1c1.5-0.7,3.1-1.2,4.5-2.3c0.1-0.9,0.8-1.4,1-2.2c0-0.2,0.4-0.3,0.4-0.3c0.7-1.6,2.3-2.4,3.8-1.7
				c0.4,0.2,0.2,0.9,0.8,0.7c0,0.3,0.1,0.6,0,0.7c-1.3,0.9-1.3,2.4-1.1,3.5c0.2,0.8,1.1,1.6,2.1,0.8c-0.2-2.8,1.1-5.3,3.3-6.9
				c1.2-0.9,2.7-0.7,4.2-0.6c-0.1,0.6,0.4,0.1,0.5,0.3"/>
			<path class="st1" d="M121.1-23.1c1.5-0.7,3.1-1.2,4.5-2.3"/>
			<path class="st1" d="M120.1-21.6c-0.8,0.5-1.1,1.4-1.6,2.2c-0.1,0.2-0.5,0.2-0.4,0.6c-0.5-0.1-1,0.4-1.5,0.2
				c-0.3-0.1-0.4-0.5-0.2-0.7c0.4-0.3,0.3-0.9,0.5-0.9c0.7-0.2,0.3-1.1,1-1.1c0.4-1.5,0.5-3,0.1-4.5c-0.5-1.9-1.6-3.5-2.4-5.3"/>
			<path class="st1" d="M114.7-32.5c-1.8-2.3-3-3.5-3.3-4.8s-0.5-2.3-1.8-2.3s-2.3,1.5-4.3,2.5s-9.3,2.3-11.3,2s-6-1-7-0.3
				S85.4-31,85.4-29s0.3,4.8,0,5.8s-1.8,2.8-2-0.5s-0.5-4.8-2.3-6.5s-4.8-2.7-5-1.5c-0.3,1.3,0.8,2.3,0.3,2.8s-2.3,1.3-3.3,1
				s-1.5-1-2.3-1.5"/>
			<path class="st1" d="M49.4-26.7c1.8-0.3,3.8-2.5,5.3-4c1.5-1.5,3-2.5,4.5-2.2s1,3.2,3.3,0.3s3.8-2,5.3-1.8s5,2,6.3,0.5
				s-2-6,0.3-6.3s3.3,3.3,5.3,4.5s3,2.8,4.3,0.8s3.3-3.8,5.5-3s3,0.8,5,0.8"/>
			<path class="st1" d="M97.4-37.5c1.5-0.3,6.3-1,7.5-2.3s-1.8-5-0.3-5.5s5.5,0.3,7,1.5s2.8,5,3.3,7.3s3.8,4.7,4.3,6.5s0,4.5,0.5,5
				s1-1.5,1.8-1.8c1.7-0.6,3.8-2.5,5.3-4"/>
			<path class="st1" d="M126.7-33.5c-1.5,1.5-3.5,0.5-7.5-0.5c0,0-2.3-1-2.5-6.5s-3.8-6.8-6.3-7.5s-12.8-2-13.5-0.5s3.8,3.5,4.5,5
				s-0.3,3.8-2,3.5s-1.8-2.8-3.3-3.5s-5.5-1-5.8,1.3S86.2-40,86.2-40c-2.5-0.5-3,4-5,4s-2.5-4.5-4.5-6.5c-1-1-2.8-1.3-4.7-1.3"/>
			<path class="st1" d="M68.9-43.6c-1,0.1-1.9,0.1-2.8,0.1c-3.5,0-4,2.5-1.5,3s4.5,2.5,6.5,4s-1.5,1-3.5,0s-3,0-5.5,2s-1.5-0.5-3-1
				s-3,0.5-4.5,2C53.2-32,51.2-33,47.2-34"/>
			<path class="st1" d="M48.4-37.2c1.5,0.8,3.3,2.3,5.3,1.3s3.3-2.5,4.5-2s2.5,2.3,4,1.3s3.3-0.8,1.5-2.5s-5.3-3-4-4
				s3.8-3.3,6.5-3.3s15-2.3,14.5,0.3s-1.8,8.3,0,7.3s3.3-2.8,4.8-2.8s2.8-0.3,3.3-2.8s3-3.8,4-2.8s2.5,2.3,2.3,0.5s0.5-4.5,4-4.3
				c0.5,0,1.1,0.1,1.7,0.1"/>
			<path class="st1" d="M102.7-50.7c4.2,0.4,9.7,1.2,11.8,2.4c2.8,1.8,4.5,6,4.8,8.5"/>
			<path class="st1" d="M120.4-37.2c1.5,0.8,3.3,2.3,5.3,1.3"/>
			<path class="st1" d="M64.4-11.5c-2.8,0.3-7-0.3-6-3s7.5-4.5,8.3-6s2.8-1.8,3.8,0.3s3.8,5.3,5,5.8s4.3,3,3.3,4.8"/>
			<path class="st1" d="M85.4-9.5c-0.5-1.3-1.8-3.3,0-4.5s10.3-3.8,12-2.8s1.8,2,0.5,3.3s-6.5,1.3-5.8,2.5"/>
			<path class="st1" d="M48.9-16.2c1-1.3,2.8-3,4.5-4.8s2.8-1.3,3,0.3s0.8,2.5,2.3,2.3s5.5-3,6-5.3s1.8-3.8,3-2.8s2,4,4.3,4
				s7.5-4.8,7.8-3s-0.5,4,0.3,6.5s2.5,2.5,5,1.5s4.5-2,4.8-3.5"/>
			<path class="st1" d="M120.9-16.2c1-1.3,2.8-3,4.5-4.8"/>
			<path class="st1" d="M55.9-12c0,0-4-3.5-2-4s4,0,6-1.3s5.3-3.3,6-4.8s1.8-2.5,2.5-1.5s2,2,3.8,2.5s3-1,3.8,0.8s0,4.5,1.8,5
				s3.8,1,3.5,2.8"/>
			<path class="st1" d="M81.9-9.7c0.5-1.3,0-4,1.5-5s6.3-2.8,7-4c0.7-1.2,3.9-1.9,6-2"/>
			<path class="st1" d="M98.2-20.7c0.2,0.2,1.9,0.2,2.3,0.8c1.3,2.3,1.5,6.3-0.3,7.5"/>
			<path class="st1" d="M103.4-12.7c0.8-2.3,2.3-8.8,0.8-9.5s-4.8-1.5-2.8-3.5s5.8-3.8,6.8-3.3s4.5,3.5,3.8,5.3s-1.3,2.3-2.3,3.8
				s-1,4.5,0.3,5.8s2.5,0.8,2.8,2.3"/>
			<path class="st1" d="M89.9-22.7c0-1.3-0.5-2.5,0.3-4.5s2.8-3,3-1.5s-1.5,4.8,0,5s2.5,0.5,3.3-1s-1.3-3.3,0-4.3s6.3-2.8,7.8-2.3
				s2.8-0.3,3.8-0.5"/>
			<path class="st1" d="M109.7-31.7c1-0.3,2.3,1.5,2.5,3s2.3,2.8,2.5,3.8s-2.3,5-2.8,6.3s-0.3,2.8,1,4s1.5,3.8,2.8,3
				s2.8-2.3,3.5-2.8"/>
			<path class="st1" d="M105.7-12.2c0.8-0.5,0.8-1,0.5-3s0.8-6.8,0-7.8s-1.5-3,0-2.5c0.8,0.3,2.5-0.1,2.8,1.4c0.2,1.2-1,4.2-1,4.9
				c0,1.5-0.4,5.6-0.4,6.9"/>
			<path class="st1" d="M47.9-82c2.3-0.5,7,0,6,1.8s4,7,4.5,5.5s-2-4.5,0.8-4.8s5.8,3,7.5,3.3s5.5-1.5,3.3-3s-2.8-4.5-5.5-4.3
				s-7-0.3-6-3"/>
			<path class="st1" d="M75.4-86.5c1.3,0.5,4.3,3,3.3,4.8s-0.5,3.3,1,3.5s6.3-2,5.8-3.3s-1.8-3.3,0-4.5"/>
			<path class="st1" d="M97.4-88.7c1.8,1,1.8,2,0.5,3.3s-6.5,1.3-5.8,2.5s5,4,7.8,4s3-3.5,4.8-4"/>
			<path class="st1" d="M105.7-84.2c0.8-0.5,0.8-1,0.5-3"/>
			<path class="st1" d="M107.9-91.2c0,1.5-0.4,5.6-0.4,6.9c0,1.4,0.5,1.9,0.5,1.9"/>
			<path class="st1" d="M50.2-40.7c1.8,1,2,2,4,1.3s2.5-1,2.5-1c2,1,3.5,1.5,3.3,0.5c-0.9-3.4-5.8-3-5-4.3c1.3-2,5.3-2.3,6.8-4.3
				s-0.5-3.8,1.8-4.8s5.5,1,6.3,2.3s4.5,2.3,7.5,1.5s7.3-2,6.8,0.5s-1.3,5.8,0.3,4.5s5.3-8.5,7.5-8.3s3.3,0,6.3-0.3s9.5,0.5,9.3-2
				s-4.8-8.3-1-8.3c1.7,0,3.6,0.6,5.2,1.5"/>
			<path class="st1" d="M114.1-59.4c0.6,0.8,1,1.6,1.1,2.5c0.5,3.5,0.3,5.8,2.3,7"/>
			<path class="st1" d="M122.2-40.7c1.8,1,2,2,4,1.3"/>
			<path class="st1" d="M118.7-49.2c1,1,2,3,2,4s-0.5,2.3,0.3,3.3"/>
			<path class="st1" d="M48.9-84.5c1.8,0.5,5.5,0.3,6,1.8s2.8,2.8,2.8,1.5S55.9-84,55.9-84s-4-3.5-2-4"/>
			<path class="st1" d="M77.7-87.2c1.8,0.5,3.8,1,3.5,2.8s0.3,4,0.8,2.8s0-4,1.5-5"/>
			<path class="st1" d="M100.4-92c1.3,2.3,1.5,6.3-0.3,7.5s-3,3-1.5,2.8s4-0.8,4.8-3s2.3-8.8,0.8-9.5"/>
			<path class="st1" d="M109.7-92c-1,1.5-1,4.5,0.3,5.8s2.5,0.8,2.8,2.3s1.5,3.3,2.5,3.3s2.5-2,3.3-2.8c1-1,2.5-1,2.5-1
				c1.8,0.5,5.5,0.3,6,1.8"/>
			<path class="st1" d="M49.2-49.5c1.3,0.5,3.3,2.3,4,1.3s-8-3-0.5-4.8s6.3-1,7.3-3.5s-6.5-3.3-4.5-4.5s9.3-3,11.8-1.8
				c3,1.5,1.5,3.8,1.8,4.5s-1,4.8,2.5,6s5,2.5,8,0.8s7-3.3,7-2s-0.3,2,2.5,0.3s7.3-3.3,9.8-3s5-0.5,4-2.3s-3.8-2.8-5-4.8
				s0.8-3.3,3.3-3.5s12,0.8,13.8,2.3s2.3,5.5,2.3,8s-1,3.3,1.8,5.3"/>
			<path class="st1" d="M121.2-49.5c1.3,0.5,3.3,2.3,4,1.3s-8-3-0.5-4.8"/>
			<path class="st1" d="M49.4-55.5c2.3,0.5,4.3,0,5.3-0.5s-2.5-3-4.8-3.8"/>
			<path class="st1" d="M49.9-64.7c3.8-0.5,7.3-1.5,9.8-1s7.8-0.5,9.8,3"/>
			<path class="st1" d="M121.4-55.5c2.3,0.5,4.3,0,5.3-0.5s-2.5-3-4.8-3.8s-3.8-4.5,0-5s7.2-1.5,9.7-1"/>
			<path class="st1" d="M120.2-55.7c-1.3-0.8-2-2.3-2-4s-2-7.5-5-7.8s-20.3-2-20.8,0.3s3.3,4.5,4,5.5s0.5,3.3-0.8,3.5s-4,1-3.8-0.5
				s-1-3.3-2.5-1.5c-0.8,0.9-2.7,1.5-3.8,2.3"/>
			<path class="st1" d="M83.9-56.7c-1.8,1.8-4.8,3-6.8,3s-6.3-0.5-6-2.8s0.3-3.3-0.3-4.3"/>
			<path class="st1" d="M50.2-68.7c3.5,0.5,10.8,2,12.5,2c0.6,0,1.8,0,3.2,0.1"/>
			<path class="st1" d="M69.9-66.4c2,0.2,3.7,0.7,4.3,1.4c1.3,1.8-0.3,4.8-0.8,6.3s-1,2.8,0.5,2.8s6.8,0.3,6-1.3s-3.3-2.3-2.5-3.8
				s7-2.5,8.3-2.3s3.8,1.3,4.8,0.3s-0.8-1.5-0.3-3.5"/>
			<path class="st1" d="M122.2-68.7c3.5,0.5,10.7,2,12.5,2"/>
			<path class="st1" d="M91.2-68c2-1,3.3-2.3,7.8-2s17.5,1.3,18,2.3s2,1.8,2.5,0.5s1.3-1.5,1.3-1.5"/>
			<path class="st1" d="M50.7-77.2c1.5,1.5,3.5,2.8,5.5,3.8s5,2,5.3,0.8s-2.8-3.3-1-3.3s3.3,2,6.5,1.8s9.3-4,7.3-4.8
				s-3.8-3.5-5.5-4.5s-2.8-1-4-1s-4-1.3-2-2"/>
			<path class="st1" d="M73.9-86c1,2,2.3,3.3,2.5,5s-0.5,4.8,2,4.8c0.6,0,1.3,0,2-0.2"/>
			<path class="st1" d="M82.5-76.9c1.4-0.5,2.7-1.2,3.7-2.3c2-2.3,0.3-2.8,0.5-4s6-4,7-3.3s-1.3,0-2.3,1.8s-4.3,6.3,1,6.5
				s6.3,1.3,6.5,2.3s5,0.8,5-0.5s1.5-6,2-4.8s2,3.5,5,5"/>
			<path class="st1" d="M122.7-77.2c1.5,1.5,3.5,2.8,5.5,3.8"/>
			<path class="st1" d="M119.9-82c2.3-0.5,7,0,6,1.8"/>
			<path class="st1" d="M109.7-81.5c0.8,1,3.3,2.3,4,3.3s2.3,2.5,3,0.8s-0.3-3.5,1.5-4"/>
			<path class="st1" d="M121.9-78c-1.5-1.5-3.3-2.3-3.3-1.3s2.8,1.8,1.8,3.3s-5,2.5-6.5,1.8s-1.8-1.3-1.8-1.3"/>
			<path class="st1" d="M50.2-71.2c1.8,0.5,10.3,2.8,14.3,2.5s10.8-0.5,11.8,0.3s0.3,2,0.5,3.3s1,2.3,2.3,1s3.8-2,5-1.5
				s3.5,1.3,3.3,0s-2.8-3.3-1.5-5.5s7-6.5,6.5-4.3s-1.3,5.3,0.5,4.5s5-2,8-1.5"/>
			<path class="st1" d="M122.2-71.2c1.8,0.5,10.2,2.8,14.2,2.5"/>
			<path class="st1" d="M120.4-71.5c-1.5-0.5-3.6-0.2-3.3,1c0.8,2.5-3.3-0.3-6-0.8s-6-0.8-7-0.8"/>
			<path class="st1" d="M50.4-74c3,1.5,9.5,4,16,3.8s6.3-1.8,4.8-1.8s0.3-2.5,2.3-2.5s4.5,1.5,4.8,3.3s1,3,2.3,2.8s1-1,2.8-4
				s2.5-3,4-4.8s1.5,0,2.3,0.3s6.3-0.8,6.3,0.5s-3.8,3-2,3s9.8-1.5,11.5-0.8"/>
			<path class="st1" d="M122.4-74c3,1.5,9.5,4,16,3.8"/>
			<path class="st1" d="M121.9-74.2c-2-0.9-4.3,2.3-7,1.8s-4.8-1-6.3-1.3s-2.3-0.3-2.3-0.3"/>
			<path class="st1" d="M64.7-12.5c-1.3,0-4-1.3-2-2c2.8-2,9.5-2.3,11.3,0.5c1,2,2.3,3.3,2.5,5"/>
			<path class="st1" d="M86.7-11.2c0.3-1.3,6-4,7-3.3s-1.3,0-2.3,1.8"/>
			<path class="st1" d="M112.9-86.7c1.3,1.3,1.5,3.8,2.8,3s2.8-2.3,3.5-2.8"/>
		</g>
		<g>
			<path class="st1" d="M56.9-25.2c-4.5,1.5-6.6,6.1-10.5,8.5c-1.5,1-2.6,1.1-3.9,0.8c-1.2-0.3-0.4-2.1-0.5-3.3
				c-0.2-1.5,1.6-0.9,2.2-1.9c0.6-1,0.8-1.5,0.6-2.7"/>
			<path class="st1" d="M49.1-23.1c1.5-0.7,3.1-1.2,4.5-2.3"/>
			<path class="st1" d="M25.4-37.5c1.5-0.3,6.3-1,7.5-2.3s-1.8-5-0.3-5.5s5.5,0.3,7,1.5s2.8,5,3.3,7.3s3.8,4.7,4.3,6.5s0,4.5,0.5,5
				s1-1.5,1.8-1.8c1.7-0.6,3.8-2.5,5.3-4"/>
			<path class="st1" d="M54.7-33.5C53.2-32,51.2-33,47.2-34c0,0-2.3-1-2.5-6.5s-3.8-6.8-6.3-7.5s-12.8-2-13.5-0.5s3.8,3.5,4.5,5
				s-0.3,3.8-2,3.5s-1.8-2.8-3.3-3.5s-5.5-1-5.8,1.3S14.2-40,14.2-40c-2.5-0.5-3,4-5,4c-2,0-2.5-4.5-4.5-6.5c-1-1-2.8-1.3-4.7-1.3"
				/>
			<path class="st1" d="M48.4-37.2c1.5,0.8,3.3,2.3,5.3,1.3"/>
			<path class="st1" d="M48.9-16.2c1-1.3,2.8-3,4.5-4.8"/>
			<path class="st1" d="M50.2-40.7c1.8,1,2,2,4,1.3"/>
			<path class="st1" d="M37.7-92c-1,1.5-1,4.5,0.3,5.8s2.5,0.8,2.8,2.3s1.5,3.3,2.5,3.3s2.5-2,3.3-2.8c1-1,2.5-1,2.5-1
				c1.8,0.5,5.5,0.3,6,1.8"/>
			<path class="st1" d="M49.2-49.5c1.3,0.5,3.3,2.3,4,1.3s-8-3-0.5-4.8"/>
			<path class="st1" d="M49.4-55.5c2.3,0.5,4.3,0,5.3-0.5s-2.5-3-4.8-3.8s-3.8-4.5,0-5s7.3-1.5,9.8-1"/>
			<path class="st1" d="M50.2-68.7c3.5,0.5,10.8,2,12.5,2"/>
			<path class="st1" d="M50.7-77.2c1.5,1.5,3.5,2.8,5.5,3.8"/>
			<path class="st1" d="M47.9-82c2.3-0.5,7,0,6,1.8"/>
			<path class="st1" d="M50.2-71.2c1.8,0.5,10.3,2.8,14.3,2.5"/>
			<path class="st1" d="M50.4-74c3,1.5,9.5,4,16,3.8"/>
		</g>
		<g>
			<path class="st1" d="M64.4-83.5c-2.8,0.3-7-0.3-6-3s7.5-4.5,8.3-6s2.8-1.8,3.8,0.3s3.8,5.3,5,5.8s4.3,3,3.3,4.8"/>
			<path class="st1" d="M85.4-81.5c-0.5-1.3-1.8-3.3,0-4.5s10.3-3.8,12-2.8s1.8,2,0.5,3.3s-6.5,1.3-5.8,2.5"/>
			<path class="st1" d="M55.9-84c0,0-4-3.5-2-4s4,0,6-1.3s5.3-3.3,6-4.8s1.8-2.5,2.5-1.5s2,2,3.8,2.5s3-1,3.8,0.8s0,4.5,1.8,5
				s3.8,1,3.5,2.8"/>
			<path class="st1" d="M81.9-81.7c0.5-1.3,0-4,1.5-5s6.3-2.8,7-4c0.7-1.2,3.9-1.9,6-2"/>
			<path class="st1" d="M98.2-92.7c0.2,0.2,1.9,0.2,2.3,0.8c1.3,2.3,1.5,6.3-0.3,7.5"/>
			<path class="st1" d="M103.4-84.7c0.8-2.3,2.3-8.8,0.8-9.5s-4.8-1.5-2.8-3.5s5.8-3.8,6.8-3.3s4.5,3.5,3.8,5.3s-1.3,2.3-2.3,3.8
				s-1,4.5,0.3,5.8s2.5,0.8,2.8,2.3"/>
			<path class="st1" d="M109.7-103.7c1-0.3,2.3,1.5,2.5,3s2.3,2.8,2.5,3.8s-2.3,5-2.8,6.3s-0.3,2.8,1,4s1.5,3.8,2.8,3
				s2.8-2.3,3.5-2.8"/>
			<path class="st1" d="M105.7-84.2c0.8-0.5,0.8-1,0.5-3s0.8-6.8,0-7.8s-1.5-3,0-2.5c0.8,0.3,2.5-0.1,2.8,1.4c0.2,1.2-1,4.2-1,4.9
				c0,1.5-0.4,5.6-0.4,6.9"/>
			<path class="st1" d="M64.7-84.5c-1.3,0-4-1.3-2-2c2.8-2,9.5-2.3,11.3,0.5c1,2,2.3,3.3,2.5,5"/>
			<path class="st1" d="M86.7-83.2c0.3-1.3,6-4,7-3.3s-1.3,0-2.3,1.8"/>
		</g>
	</g>
</pattern>
<rect id="_x3C_background_fill_x3E_" class="st2" width="480" height="270"/>
<pattern  id="_x3C_background_grid_x3E__1_" xlink:href="#Mezzotint_Irregular" patternTransform="matrix(1 0 0 1 0 0)">
</pattern>
<rect id="_x3C_background_grid_x3E_" x="0" class="st3" width="480" height="270"/>
<g id="_x3C_text_x3E_">
	<polygon class="st0" points="443.7,6.4 37.8,187.3 70.2,260.2 476.1,79.3 	"/>
	<text transform="matrix(0.9121 -0.4066 0.4063 0.9137 62.0531 229.7245)" class="st4 st5 st6">Изображение</text>
</g>
</svg>
